/* XPM */
static char * closed_exit_xpm[] = {
"32 32 19 1",
" 	c #EAD4AA",
".	c #E4A672",
"+	c #E8B796",
"@	c #C28569",
"#	c #FADFA6",
"$	c #3392D2",
"%	c #FFEDC7",
"&	c #389BDD",
"*	c #FFF6E2",
"=	c #54A3D8",
"-	c #FFE7B6",
";	c #2781BD",
">	c #F7DDA8",
",	c #F7D897",
"'	c #473819",
")	c #DFBA6C",
"!	c #B3924E",
"~	c #C5A35B",
"{	c #1A71AB",
"   .+    .+   .+   @++ ++++     ",
"  .++    .+   .+   @+    +      ",
"..++  ...++  .++   @++      ....",
"+++  .++++ ..+ ++  @++      ++++",
"+  ..+    .++    @@++...++++    ",
"  .+++ ...+   @@@+++++++     ++ ",
"  .++ .+++  @@+++++++++....     ",
"..+   .    @+++++++....++++.....",
"++ ...   @@+++.....++++    +++++",
"  .++   @++++.     .+++         ",
"  .+ #$$$$$$$$$$$$$$$$$$$$#++   ",
"++.+ %&&&&&&&&&&&&&&&&&&&&%  +++",
"..+  *====================*++...",
"++ @@*====================*..+++",
"+ @++%&&&&&&&&&&&&&&&&&&&&%++   ",
"  @++-$$$$$$$$$$$$$$$$$$$$-     ",
"+ @+ #;;;;;;;;;;;;;;;;;;;;#  ++ ",
"  @+ #;;;;;;;;>>>>;;;;;;;;#     ",
"  @++,,,,,,,,,,'',,,,,,,,,,@ +  ",
"  @++))))))))))''))))))))))@    ",
"@@++.!~~~;;;;;~~~~;;;;;~~~!+@@@@",
"+++. !!~;;;;;;;;;;;;;;;;~!! ++++",
".++. !!{{;;;;;;;;;;;;;;{{!! ++++",
"+++. !!{{{{{{{{{{{{{{{{{{!!+++++",
"...   @+++   .+ +.....    +++...",
"      @+  ...+  .     ++++....  ",
"   @@@+  .+++   .  .......      ",
"@@@+++   .+  ...+ .+++      @@@@",
"+++    ..+  .+++  .+  @@@@@@++++",
"    ...++   .+ ...  @@+++++++   ",
"   .+++  ...+ .++  @+++ +++   + ",
"   .    .+++  .    @++   +++    "};
