/* XPM */
static char * collectible_xpm[] = {
"32 32 5 1",
" 	c #EAD4AA",
".	c #E4A672",
"+	c #E8B796",
"@	c #C28569",
"#	c #3392D2",
"   .+    .+   .+   @++ ++++     ",
"  .++    .+   .+   @+    +      ",
"..++  ...++  .+### @++      ....",
"+++  .++++ ..+#####@++      ++++",
"+  ..+    .++##  @##+...++++    ",
"  .+++ ...+  #@@@++#++++     ++ ",
"  .++ .+++ ###+++++###+....     ",
"..+   .   #####+++#####++++.....",
"++ ...   ###++##.##++###   +++++",
"  .++   @##++.     .++##        ",
"  .+  @@+##++# +   #..##+  ++   ",
"++.+ @++++####     ####.+++  +++",
"..+  @++...#### @@#### +..+++...",
"++ @@++.     #######@   ++...+++",
"+ @++++. +  @##### ++@    +++   ",
"  @+++.  + @+++###  +@ +        ",
"+ @+ +.    @+  ###. +@       ++ ",
"  @+ +.   @++  ###+. +@@@@@     ",
"  @+++.   @+   ### .  +++++@ +  ",
"  @+++. + @++ .### .      +@    ",
"@@++..    @+  .### +..     +@@@@",
"+++.    + @+  .### ###....  ++++",
".++. +    @+ .+##  ## ++++. ++++",
"+++.   @@@+. .+#######.... +++++",
"...   @+++   .+######.    +++...",
"      @+  ...+ ##  ###++++....  ",
"   @@@+  .+++  ### ###....      ",
"@@@+++   .+  ..###.+++      @@@@",
"+++    ..+  .++###.+  @@@@@@++++",
"    ...++   .+ ...  @@+++++++   ",
"   .+++  ...+ .++  @+++ +++   + ",
"   .    .+++  .    @++   +++    "};
