/* XPM */
static char * enemy_xpm[] = {
"32 32 12 1",
" 	c #EAD4AA",
".	c #E4A672",
"+	c #E8B796",
"@	c #C28569",
"#	c #252B43",
"$	c #5867AE",
"%	c #3A4467",
"&	c #0099DC",
"*	c #FDAE35",
"=	c #E43D44",
"-	c #F77622",
";	c #BF4830",
"   .+    .+   .+   @++ +++##### ",
"  .++    .+   .+   @+    #$# ###",
"..++  ...+#  .#+   @++   ## ..##",
"+++  .+++##..+##+  @++   ## ++##",
"+  ..+  #%#++ #%#@@++...+###  # ",
"  .+++ .#%#&&&#%#+++++++  ###++ ",
"  .++ .#%%#####%%#+++++....%#   ",
"..+   .#%%#####%%#+....++++##...",
"++ ...&###########&++++    #%+++",
"  .++&#############&+++    %%   ",
"  .+&&#############&&..++  %#   ",
"++.&&&#############&&&+.+++##+++",
".*&&&&##=#######=##&&**+..+##...",
"****-&&##==###==##&&-***++.%%+++",
"****-*&&#########&&*-***  -##-  ",
"****-***########&***-**;-*-;--  ",
";;;;-****#######****-;;-**-;;;+ ",
";;----****#####****-;;--**-;--  ",
";;-----***#####***-;;;-****;;;  ",
";;;---.---#####--- .;;;****%%   ",
";;;--. *-*##%##*-* +.;;****##@@@",
"*****  ----###----  ++;*** %%+++",
".*** +***-*-*-*-***   ++++.%#+++",
"+***  ***-*-*-*-***+++.... ##+++",
".;-- ****-*-*-*-****..    +%%...",
" ;;- ****-*-*-*-****  ++++.%#.  ",
"  ;-@;;;;-------;;;;...... %%   ",
"@@@++;;---+  ..;;----+     ##@@@",
"+++  ;**--  .+++;-**- @@@@@#%+++",
"    ..****  .+ .*****@+++++##   ",
"   .++*---..+ .++;--+++ +++## + ",
"   .   **+++  .   *-*+   ++##   "};
