/* XPM */
static char * floor_xpm[] = {
"32 32 4 1",
" 	c #EAD4AA",
".	c #E4A672",
"+	c #E8B796",
"@	c #C28569",
"   .+    .+   .+   @++ ++++     ",
"  .++    .+   .+   @+    +      ",
"..++  ...++  .++   @++      ....",
"+++  .++++ ..+ ++  @++      ++++",
"+  ..+    .++    @@++...++++    ",
"  .+++ ...+   @@@+++++++     ++ ",
"  .++ .+++  @@+++++++++....     ",
"..+   .    @+++++++....++++.....",
"++ ...   @@+++.....++++    +++++",
"  .++   @++++.     .+++         ",
"  .+  @@+ +++. +    ...++  ++   ",
"++.+ @+++++..        ++.+++  +++",
"..+  @++...     @@@    +..+++...",
"++ @@++.      @@+++@@   ++...+++",
"+ @++++. +  @@+++  ++@    +++   ",
"  @+++.  + @+++     +@ +        ",
"+ @+ +.    @+   ... +@       ++ ",
"  @+ +.   @++  .+++. +@@@@@     ",
"  @+++.   @+   +   .  +++++@ +  ",
"  @+++. + @++ .+ + .      +@    ",
"@@++..    @+  .+ + +..     +@@@@",
"+++.    + @+  .+ +  ++....  ++++",
".++. +    @+ .+       ++++. ++++",
"+++.   @@@+. .+  +++++.... +++++",
"...   @+++   .+ +.....    +++...",
"      @+  ...+  .     ++++....  ",
"   @@@+  .+++   .  .......      ",
"@@@+++   .+  ...+ .+++      @@@@",
"+++    ..+  .+++  .+  @@@@@@++++",
"    ...++   .+ ...  @@+++++++   ",
"   .+++  ...+ .++  @+++ +++   + ",
"   .    .+++  .    @++   +++    "};
