/* XPM */
static char * open_exit_xpm[] = {
"32 32 21 1",
" 	c #EAD4AA",
".	c #E4A672",
"+	c #E8B796",
"@	c #C28569",
"#	c #FADFA6",
"$	c #4FB2F4",
"%	c #FFEDC7",
"&	c #46A3E2",
"*	c #FFF6E2",
"=	c #473819",
"-	c #35231E",
";	c #271916",
">	c #2A1C19",
",	c #221613",
"'	c #3C2923",
")	c #4F352E",
"!	c #DFBA6C",
"~	c #B3924E",
"{	c #C5A35B",
"]	c #2781BD",
"^	c #1A71AB",
"   .+    .+   .+   @++ ++++     ",
"  .++    .+   .+   @+    +      ",
"..++  ...++  .++   @++      ....",
"+++  .++++ ..+ ++  @++      ++++",
"+  ..+    .++    @@++...++++    ",
"  .+++ ...+   @@@+++++++     ++ ",
"  .++ .+++  @@+++++++++....     ",
"..+   .    @+++++++....++++.....",
"++ ...   @@+++.....++++    +++++",
"  .++   @++++.     .+++         ",
"  .+ #$$$$$$$$$$$$$$$$$$$$#++   ",
"++.+ %&&&&&&&&****&&&&&&&&%  +++",
"..+  **********==**********++...",
"++ @@-;;;;;;;;;;;;;;;;;;;;-..+++",
"+ @++>-------------------->++   ",
"  @++,'''''''''''''''''''',     ",
"+ @+ ,)))))))))))))))))))),  ++ ",
"  @+ >))))))))))))))))))))>     ",
"  @++-))))))))))))))))))))-@ +  ",
"  @++!!!!!!!!!!==!!!!!!!!!!@    ",
"@@++.~{{{]]]]]{{{{]]]]]{{{~+@@@@",
"+++. ~~{]]]]]]]]]]]]]]]]{~~ ++++",
".++. ~~^^]]]]]]]]]]]]]]^^~~ ++++",
"+++. ~~^^^^^^^^^^^^^^^^^^~~+++++",
"...   @+++   .+ +.....    +++...",
"      @+  ...+  .     ++++....  ",
"   @@@+  .+++   .  .......      ",
"@@@+++   .+  ...+ .+++      @@@@",
"+++    ..+  .+++  .+  @@@@@@++++",
"    ...++   .+ ...  @@+++++++   ",
"   .+++  ...+ .++  @+++ +++   + ",
"   .    .+++  .    @++   +++    "};
