/* XPM */
static char * player_up_xpm[] = {
"32 32 14 1",
" 	c #EAD4AA",
".	c #E4A672",
"+	c #E8B796",
"@	c #974C01",
"#	c #663300",
"$	c #F3AE68",
"%	c #C28569",
"&	c #F15DA7",
"*	c #B887E9",
"=	c #825BA9",
"-	c #FBAC49",
";	c #FADF62",
">	c #FE7E28",
",	c #ECF0F0",
"   .+    @@@@@@@@@@@@@@++++     ",
"  .++    @@@@@@@@@@@@@@  +      ",
"..++  .@@@@@@@@@@@@@@@@@@   ....",
"+++  .+@@@@@@@@@@@@@@@@@@   ++++",
"+  ..+ @@@@@@@@@@@@@@@@@@+++    ",
"  .+++##$@@@@@@@@@@@@@@$##   ++ ",
"  .++ ###@@@@@@@@@@@@@@###.     ",
"..+   ####$$$$$$$$@@$$####+.....",
"++ ...#################### +++++",
"  .++ ####################      ",
"  .+  #################### ++   ",
"++.+ %####################+  +++",
"..+  %####################+++...",
"++ %%+####################...+++",
"+ %+++####################+++   ",
"  %+++####################      ",
"+ %+ +####################   ++ ",
"  %+ +.##################%%     ",
"  %+++. ################+++% +  ",
"  %+++. &&*##########*&&  +%    ",
"%%++..  &&*=********=*&&   +%%%%",
"+++.   &&&*=********=*&&&.  ++++",
".++. + ---*==******==*---+. ++++",
"+++.   ---**========**---. +++++",
"...   %---************;;; +++...",
"      %---.********** ---+....  ",
"   %%%+  .+>********>.....      ",
"%%%+++   .+>>>>>>>>>>+      %%%%",
"+++    ..+ >>>>+ >>>> %%%%%%++++",
"    ...++  ----..----%+++++++   ",
"   .+++  ..;;;;++;;;;++ +++   + ",
"   .    .++,,,,  ,,,,+   +++    "};
